HIERARCHY
ROOT Hips
{
	OFFSET 0.000000 0.000000 0.000000
	CHANNELS 6 Xposition Yposition Zposition Zrotation Yrotation Xrotation 
	JOINT LowerBack
	{
		OFFSET 0.000000 0.000000 0.000000
		CHANNELS 3 Zrotation Yrotation Xrotation
		JOINT Spine
		{
			OFFSET 0.028270 2.035590 -0.193380
			CHANNELS 3 Zrotation Yrotation Xrotation
			JOINT Spine1
			{
				OFFSET 0.056720 2.048850 -0.042750
				CHANNELS 3 Zrotation Yrotation Xrotation
				JOINT Neck
				{
					OFFSET 0.000000 0.000000 0.000000
					CHANNELS 3 Zrotation Yrotation Xrotation
					JOINT Neck1
					{
						OFFSET -0.054170 1.746240 0.172020
						CHANNELS 3 Zrotation Yrotation Xrotation
						JOINT Head
						{
							OFFSET 0.104070 1.761360 -0.123970
							CHANNELS 3 Zrotation Yrotation Xrotation
							End Site
							{
								OFFSET 0.000000 0.000000 0.000000
							}
						}
					}
				}
				JOINT LeftShoulder
				{
					OFFSET 0.000000 0.000000 0.000000
					CHANNELS 3 Zrotation Yrotation Xrotation
					JOINT LeftArm
					{
						OFFSET 3.362410 1.200890 -0.311210
						CHANNELS 3 Zrotation Yrotation Xrotation
						JOINT LeftForeArm
						{
							OFFSET 4.983000 -0.000000 -0.000000
							CHANNELS 3 Zrotation Yrotation Xrotation
							JOINT LeftHand
							{
								OFFSET 3.483560 -0.000000 -0.000000
								CHANNELS 3 Zrotation Yrotation Xrotation
								JOINT LeftFingerBase
								{
									OFFSET 0.000000 0.000000 0.000000
									CHANNELS 3 Zrotation Yrotation Xrotation
									JOINT LeftHandIndex1
									{
										OFFSET 0.715260 -0.000000 -0.000000
										CHANNELS 3 Zrotation Yrotation Xrotation
										End Site
										{
											OFFSET 0.000000 0.000000 0.000000
										}
									}
								}
								JOINT LThumb
								{
									OFFSET 0.000000 0.000000 0.000000
									CHANNELS 3 Zrotation Yrotation Xrotation
									End Site
									{
										OFFSET 0.000000 0.000000 0.000000
									}
								}
							}
						}
					}
				}
				JOINT RightShoulder
				{
					OFFSET 0.000000 0.000000 0.000000
					CHANNELS 3 Zrotation Yrotation Xrotation
					JOINT RightArm
					{
						OFFSET -3.136600 1.374050 -0.404650
						CHANNELS 3 Zrotation Yrotation Xrotation
						JOINT RightForeArm
						{
							OFFSET -5.241900 -0.000000 -0.000000
							CHANNELS 3 Zrotation Yrotation Xrotation
							JOINT RightHand
							{
								OFFSET -3.444170 -0.000000 -0.000000
								CHANNELS 3 Zrotation Yrotation Xrotation
								JOINT RightFingerBase
								{
									OFFSET 0.000000 0.000000 0.000000
									CHANNELS 3 Zrotation Yrotation Xrotation
									JOINT RightHandIndex1
									{
										OFFSET -0.622530 -0.000000 -0.000000
										CHANNELS 3 Zrotation Yrotation Xrotation
										End Site
										{
											OFFSET 0.000000 0.000000 0.000000
										}
									}
								}
								JOINT RThumb
								{
									OFFSET 0.000000 0.000000 0.000000
									CHANNELS 3 Zrotation Yrotation Xrotation
									End Site
									{
										OFFSET 0.000000 0.000000 0.000000
									}
								}
							}
						}
					}
				}
			}
		}
	}
}
}
MOTION
Frames: 7
Frame Time: 0.008333
3.226781 15.387981 -1.053136 174.848531 78.420940 -158.246190 4.554003 -0.504105 14.057260 0.181777 -0.326794 -0.378512 -5.206257 -0.343494 -1.575883 5.896604 -2.394737 -3.865096 -2.123608 -0.178255 0.558160 0.000000 0.000000 0.000000 -0.247971 11.146302 2.195808 -67.245008 24.457940 26.726361 -0.445362 -75.713192 -0.023515 9.838321 10.735349 0.941392 -0.143043 -0.009500 0.000000 0.000000 0.000000 0.000000 0.000000 0.000000 0.000000 3.471097 1.924391 -1.713019 72.465112 9.447403 5.312291 0.098347 87.712852 -0.119134 -19.007058 1.569803 -0.332446 0.268629 -0.393266 0.000000 0.000000 0.000000 0.000000 0.000000 0.000000 0.000000 
3.409361 15.435264 -1.096844 174.758134 78.176029 -158.363061 4.192640 -0.367452 13.906248 0.128723 -0.195639 -0.433656 -5.119822 -0.207867 -1.659510 5.637136 -2.382612 -3.794578 -1.941454 -0.167856 0.587948 0.000000 0.000000 0.000000 -0.328254 11.378677 2.173084 -66.333045 25.923591 27.450011 -0.439608 -76.370838 -0.022217 9.673086 10.541825 0.909605 -0.144018 -0.015560 0.000000 0.000000 0.000000 0.000000 0.000000 0.000000 0.000000 2.252761 2.095372 -1.862802 73.015778 10.223905 5.722509 0.104607 88.962890 -0.119460 -18.563634 1.749520 -0.356749 0.264327 -0.407737 0.000000 0.000000 0.000000 0.000000 0.000000 0.000000 0.000000 
3.594743 15.491543 -1.143793 174.762761 77.893368 -158.383545 3.829151 -0.233577 13.752742 0.071313 -0.064542 -0.490757 -5.052911 -0.071753 -1.745166 5.430740 -2.390441 -3.729388 -1.777351 -0.158576 0.616002 0.000000 0.000000 0.000000 -0.333234 11.649242 2.131764 -65.373335 27.379043 28.175338 -0.425388 -77.312750 -0.020887 9.444989 10.221488 0.861823 -0.144631 -0.019686 0.000000 0.000000 0.000000 0.000000 0.000000 0.000000 0.000000 1.159001 2.247398 -2.007663 73.423400 10.831132 6.147475 -179.887128 89.650661 179.878958 -18.156920 1.894972 -0.374644 0.261252 -0.421348 0.000000 0.000000 0.000000 0.000000 0.000000 0.000000 0.000000 
3.783442 15.556534 -1.194013 174.833154 77.567939 -158.335304 3.460637 -0.102829 13.589151 0.007911 0.066158 -0.549822 -5.009472 0.064318 -1.825817 5.288090 -2.421311 -3.665780 -1.634436 -0.150685 0.643438 0.000000 0.000000 0.000000 -0.251966 11.948375 2.072811 -64.395495 28.788240 28.895453 -0.403688 -78.458322 -0.019515 9.159157 9.806210 0.802244 -0.144669 -0.022215 0.000000 0.000000 0.000000 0.000000 0.000000 0.000000 0.000000 0.218346 2.373779 -2.145441 73.686414 11.281216 6.571495 -179.876008 88.165349 179.878328 -17.766884 2.028830 -0.389729 0.259116 -0.434246 -0.000000 0.000000 0.000000 0.000000 0.000000 0.000000 0.000000 
3.975819 15.629835 -1.247611 174.935592 77.196305 -158.250329 3.085350 0.023914 13.409388 -0.062292 0.195434 -0.610263 -4.990924 0.199188 -1.893850 5.213269 -2.481398 -3.602103 -1.513707 -0.144283 0.670751 0.000000 0.000000 0.000000 -0.075884 12.269936 1.998019 -63.433238 30.114462 29.607206 -0.375913 -79.724301 -0.018095 8.823865 9.329859 0.735666 -0.143964 -0.023487 -0.000000 0.000000 0.000000 0.000000 0.000000 0.000000 0.000000 -0.556974 2.464740 -2.275137 73.819574 11.590211 6.984685 -179.864489 86.622069 179.878118 -17.374192 2.171818 -0.405206 0.257535 -0.446617 -0.000000 0.000000 0.000000 0.000000 0.000000 0.000000 0.000000 
4.172114 15.710768 -1.304584 175.038516 76.773113 -158.151526 2.702763 0.146175 13.202883 -0.138617 0.322180 -0.671363 -4.993559 0.331751 -1.938385 5.198036 -2.584005 -3.542445 -1.411257 -0.139050 0.696876 0.000000 0.000000 0.000000 0.205228 12.624476 1.910591 -62.515778 31.300188 30.326004 -0.343876 -81.030762 -0.016677 8.439444 8.842037 0.667183 -0.142400 -0.024021 -0.000000 0.000000 0.000000 0.000000 0.000000 0.000000 0.000000 -1.189830 2.504053 -2.398802 73.865660 11.773333 7.382132 -179.854339 85.069182 179.878416 -16.964910 2.354003 -0.424974 0.256015 -0.458911 -0.000000 0.000000 0.000000 0.000000 0.000000 0.000000 0.000000 
4.372438 15.798907 -1.365382 175.116115 76.302617 -158.067526 2.317234 0.261769 12.971834 -0.220437 0.444083 -0.733930 -5.018160 0.459450 -1.964065 5.238029 -2.726783 -3.479750 -1.327423 -0.135122 0.723821 0.000000 0.000000 0.000000 0.564324 12.969828 1.810565 -61.667625 32.379451 31.009510 -0.308500 -82.342383 -0.015258 8.027274 8.362068 0.600497 -0.139897 -0.024096 -0.000000 0.000000 0.000000 0.000000 0.000000 0.000000 0.000000 -1.681164 2.490355 -2.512516 73.846912 11.841454 7.763038 -179.847370 83.536948 179.879286 -16.529561 2.573204 -0.448135 0.254237 -0.471102 -0.000000 0.000000 0.000000 0.000000 0.000000 0.000000 0.000000 
